G75*
%MOIN*%
%OFA0B0*%
%FSLAX25Y25*%
%IPPOS*%
%LPD*%
%AMOC8*
5,1,8,0,0,1.08239X$1,22.5*
%
%ADD10C,0.00000*%
%ADD11OC8,0.06800*%
%ADD12R,0.07400X0.07400*%
%ADD13OC8,0.07400*%
%ADD14OC8,0.08600*%
%ADD15C,0.07400*%
%ADD16C,0.08000*%
%ADD17C,0.03200*%
D10*
X0011308Y0002667D02*
X0090922Y0002667D01*
X0090922Y0002666D02*
X0091166Y0002669D01*
X0091409Y0002678D01*
X0091652Y0002692D01*
X0091895Y0002713D01*
X0092137Y0002739D01*
X0092378Y0002772D01*
X0092619Y0002810D01*
X0092858Y0002854D01*
X0093097Y0002903D01*
X0093334Y0002959D01*
X0093570Y0003020D01*
X0093804Y0003087D01*
X0094036Y0003159D01*
X0094267Y0003237D01*
X0094496Y0003321D01*
X0094722Y0003410D01*
X0094947Y0003505D01*
X0095169Y0003605D01*
X0095388Y0003710D01*
X0095605Y0003820D01*
X0095820Y0003936D01*
X0096031Y0004057D01*
X0096240Y0004183D01*
X0096445Y0004314D01*
X0096647Y0004450D01*
X0096846Y0004591D01*
X0097041Y0004736D01*
X0097233Y0004886D01*
X0097421Y0005041D01*
X0097605Y0005201D01*
X0097785Y0005364D01*
X0097962Y0005532D01*
X0098134Y0005704D01*
X0098302Y0005881D01*
X0098465Y0006061D01*
X0098625Y0006245D01*
X0098780Y0006433D01*
X0098930Y0006625D01*
X0099075Y0006820D01*
X0099216Y0007019D01*
X0099352Y0007221D01*
X0099483Y0007426D01*
X0099609Y0007635D01*
X0099730Y0007846D01*
X0099846Y0008061D01*
X0099956Y0008278D01*
X0100061Y0008497D01*
X0100161Y0008719D01*
X0100256Y0008944D01*
X0100345Y0009170D01*
X0100429Y0009399D01*
X0100507Y0009630D01*
X0100579Y0009862D01*
X0100646Y0010096D01*
X0100707Y0010332D01*
X0100763Y0010569D01*
X0100812Y0010808D01*
X0100856Y0011047D01*
X0100894Y0011288D01*
X0100927Y0011529D01*
X0100953Y0011771D01*
X0100974Y0012014D01*
X0100988Y0012257D01*
X0100997Y0012500D01*
X0101000Y0012744D01*
X0101000Y0062589D01*
X0100997Y0062833D01*
X0100988Y0063076D01*
X0100974Y0063319D01*
X0100953Y0063562D01*
X0100927Y0063804D01*
X0100894Y0064045D01*
X0100856Y0064286D01*
X0100812Y0064525D01*
X0100763Y0064764D01*
X0100707Y0065001D01*
X0100646Y0065237D01*
X0100579Y0065471D01*
X0100507Y0065703D01*
X0100429Y0065934D01*
X0100345Y0066163D01*
X0100256Y0066389D01*
X0100161Y0066614D01*
X0100061Y0066836D01*
X0099956Y0067055D01*
X0099846Y0067272D01*
X0099730Y0067487D01*
X0099609Y0067698D01*
X0099483Y0067907D01*
X0099352Y0068112D01*
X0099216Y0068314D01*
X0099075Y0068513D01*
X0098930Y0068708D01*
X0098780Y0068900D01*
X0098625Y0069088D01*
X0098465Y0069272D01*
X0098302Y0069452D01*
X0098134Y0069629D01*
X0097962Y0069801D01*
X0097785Y0069969D01*
X0097605Y0070132D01*
X0097421Y0070292D01*
X0097233Y0070447D01*
X0097041Y0070597D01*
X0096846Y0070742D01*
X0096647Y0070883D01*
X0096445Y0071019D01*
X0096240Y0071150D01*
X0096031Y0071276D01*
X0095820Y0071397D01*
X0095605Y0071513D01*
X0095388Y0071623D01*
X0095169Y0071728D01*
X0094947Y0071828D01*
X0094722Y0071923D01*
X0094496Y0072012D01*
X0094267Y0072096D01*
X0094036Y0072174D01*
X0093804Y0072246D01*
X0093570Y0072313D01*
X0093334Y0072374D01*
X0093097Y0072430D01*
X0092858Y0072479D01*
X0092619Y0072523D01*
X0092378Y0072561D01*
X0092137Y0072594D01*
X0091895Y0072620D01*
X0091652Y0072641D01*
X0091409Y0072655D01*
X0091166Y0072664D01*
X0090922Y0072667D01*
X0011078Y0072667D01*
X0010834Y0072664D01*
X0010591Y0072655D01*
X0010348Y0072641D01*
X0010105Y0072620D01*
X0009863Y0072594D01*
X0009622Y0072561D01*
X0009381Y0072523D01*
X0009142Y0072479D01*
X0008903Y0072430D01*
X0008666Y0072374D01*
X0008430Y0072313D01*
X0008196Y0072246D01*
X0007964Y0072174D01*
X0007733Y0072096D01*
X0007504Y0072012D01*
X0007278Y0071923D01*
X0007053Y0071828D01*
X0006831Y0071728D01*
X0006612Y0071623D01*
X0006395Y0071513D01*
X0006180Y0071397D01*
X0005969Y0071276D01*
X0005760Y0071150D01*
X0005555Y0071019D01*
X0005353Y0070883D01*
X0005154Y0070742D01*
X0004959Y0070597D01*
X0004767Y0070447D01*
X0004579Y0070292D01*
X0004395Y0070132D01*
X0004215Y0069969D01*
X0004038Y0069801D01*
X0003866Y0069629D01*
X0003698Y0069452D01*
X0003535Y0069272D01*
X0003375Y0069088D01*
X0003220Y0068900D01*
X0003070Y0068708D01*
X0002925Y0068513D01*
X0002784Y0068314D01*
X0002648Y0068112D01*
X0002517Y0067907D01*
X0002391Y0067698D01*
X0002270Y0067487D01*
X0002154Y0067272D01*
X0002044Y0067055D01*
X0001939Y0066836D01*
X0001839Y0066614D01*
X0001744Y0066389D01*
X0001655Y0066163D01*
X0001571Y0065934D01*
X0001493Y0065703D01*
X0001421Y0065471D01*
X0001354Y0065237D01*
X0001293Y0065001D01*
X0001237Y0064764D01*
X0001188Y0064525D01*
X0001144Y0064286D01*
X0001106Y0064045D01*
X0001073Y0063804D01*
X0001047Y0063562D01*
X0001026Y0063319D01*
X0001012Y0063076D01*
X0001003Y0062833D01*
X0001000Y0062589D01*
X0001000Y0012974D01*
X0001003Y0012725D01*
X0001012Y0012476D01*
X0001027Y0012227D01*
X0001048Y0011979D01*
X0001075Y0011732D01*
X0001108Y0011485D01*
X0001147Y0011239D01*
X0001192Y0010994D01*
X0001243Y0010750D01*
X0001300Y0010507D01*
X0001362Y0010266D01*
X0001430Y0010026D01*
X0001505Y0009789D01*
X0001584Y0009553D01*
X0001670Y0009319D01*
X0001761Y0009087D01*
X0001858Y0008857D01*
X0001960Y0008630D01*
X0002068Y0008406D01*
X0002181Y0008184D01*
X0002299Y0007964D01*
X0002423Y0007748D01*
X0002552Y0007535D01*
X0002686Y0007325D01*
X0002825Y0007118D01*
X0002969Y0006915D01*
X0003117Y0006715D01*
X0003271Y0006519D01*
X0003429Y0006327D01*
X0003592Y0006139D01*
X0003760Y0005954D01*
X0003932Y0005774D01*
X0004108Y0005598D01*
X0004288Y0005426D01*
X0004473Y0005258D01*
X0004661Y0005095D01*
X0004853Y0004937D01*
X0005049Y0004783D01*
X0005249Y0004635D01*
X0005452Y0004491D01*
X0005659Y0004352D01*
X0005869Y0004218D01*
X0006082Y0004089D01*
X0006298Y0003965D01*
X0006518Y0003847D01*
X0006740Y0003734D01*
X0006964Y0003626D01*
X0007191Y0003524D01*
X0007421Y0003427D01*
X0007653Y0003336D01*
X0007887Y0003250D01*
X0008123Y0003171D01*
X0008360Y0003096D01*
X0008600Y0003028D01*
X0008841Y0002966D01*
X0009084Y0002909D01*
X0009328Y0002858D01*
X0009573Y0002813D01*
X0009819Y0002774D01*
X0010066Y0002741D01*
X0010313Y0002714D01*
X0010561Y0002693D01*
X0010810Y0002678D01*
X0011059Y0002669D01*
X0011308Y0002666D01*
X0027000Y0066417D02*
X0027002Y0066543D01*
X0027008Y0066669D01*
X0027018Y0066795D01*
X0027032Y0066921D01*
X0027050Y0067046D01*
X0027072Y0067170D01*
X0027097Y0067294D01*
X0027127Y0067417D01*
X0027160Y0067538D01*
X0027198Y0067659D01*
X0027239Y0067778D01*
X0027284Y0067897D01*
X0027332Y0068013D01*
X0027384Y0068128D01*
X0027440Y0068241D01*
X0027500Y0068353D01*
X0027563Y0068462D01*
X0027629Y0068570D01*
X0027698Y0068675D01*
X0027771Y0068778D01*
X0027848Y0068879D01*
X0027927Y0068977D01*
X0028009Y0069073D01*
X0028095Y0069166D01*
X0028183Y0069257D01*
X0028274Y0069344D01*
X0028368Y0069429D01*
X0028464Y0069510D01*
X0028563Y0069589D01*
X0028664Y0069664D01*
X0028768Y0069736D01*
X0028874Y0069805D01*
X0028982Y0069871D01*
X0029092Y0069933D01*
X0029204Y0069991D01*
X0029317Y0070046D01*
X0029433Y0070097D01*
X0029550Y0070145D01*
X0029668Y0070189D01*
X0029788Y0070229D01*
X0029909Y0070265D01*
X0030031Y0070298D01*
X0030154Y0070327D01*
X0030278Y0070351D01*
X0030402Y0070372D01*
X0030527Y0070389D01*
X0030653Y0070402D01*
X0030779Y0070411D01*
X0030905Y0070416D01*
X0031032Y0070417D01*
X0031158Y0070414D01*
X0031284Y0070407D01*
X0031410Y0070396D01*
X0031535Y0070381D01*
X0031660Y0070362D01*
X0031784Y0070339D01*
X0031908Y0070313D01*
X0032030Y0070282D01*
X0032152Y0070248D01*
X0032272Y0070209D01*
X0032391Y0070167D01*
X0032509Y0070122D01*
X0032625Y0070072D01*
X0032740Y0070019D01*
X0032852Y0069962D01*
X0032963Y0069902D01*
X0033072Y0069838D01*
X0033179Y0069771D01*
X0033284Y0069701D01*
X0033387Y0069627D01*
X0033487Y0069550D01*
X0033585Y0069470D01*
X0033680Y0069387D01*
X0033772Y0069301D01*
X0033862Y0069212D01*
X0033949Y0069120D01*
X0034032Y0069026D01*
X0034113Y0068929D01*
X0034191Y0068829D01*
X0034266Y0068727D01*
X0034337Y0068623D01*
X0034405Y0068516D01*
X0034469Y0068408D01*
X0034530Y0068297D01*
X0034588Y0068185D01*
X0034642Y0068071D01*
X0034692Y0067955D01*
X0034739Y0067838D01*
X0034782Y0067719D01*
X0034821Y0067599D01*
X0034857Y0067478D01*
X0034888Y0067355D01*
X0034916Y0067232D01*
X0034940Y0067108D01*
X0034960Y0066983D01*
X0034976Y0066858D01*
X0034988Y0066732D01*
X0034996Y0066606D01*
X0035000Y0066480D01*
X0035000Y0066354D01*
X0034996Y0066228D01*
X0034988Y0066102D01*
X0034976Y0065976D01*
X0034960Y0065851D01*
X0034940Y0065726D01*
X0034916Y0065602D01*
X0034888Y0065479D01*
X0034857Y0065356D01*
X0034821Y0065235D01*
X0034782Y0065115D01*
X0034739Y0064996D01*
X0034692Y0064879D01*
X0034642Y0064763D01*
X0034588Y0064649D01*
X0034530Y0064537D01*
X0034469Y0064426D01*
X0034405Y0064318D01*
X0034337Y0064211D01*
X0034266Y0064107D01*
X0034191Y0064005D01*
X0034113Y0063905D01*
X0034032Y0063808D01*
X0033949Y0063714D01*
X0033862Y0063622D01*
X0033772Y0063533D01*
X0033680Y0063447D01*
X0033585Y0063364D01*
X0033487Y0063284D01*
X0033387Y0063207D01*
X0033284Y0063133D01*
X0033179Y0063063D01*
X0033072Y0062996D01*
X0032963Y0062932D01*
X0032852Y0062872D01*
X0032740Y0062815D01*
X0032625Y0062762D01*
X0032509Y0062712D01*
X0032391Y0062667D01*
X0032272Y0062625D01*
X0032152Y0062586D01*
X0032030Y0062552D01*
X0031908Y0062521D01*
X0031784Y0062495D01*
X0031660Y0062472D01*
X0031535Y0062453D01*
X0031410Y0062438D01*
X0031284Y0062427D01*
X0031158Y0062420D01*
X0031032Y0062417D01*
X0030905Y0062418D01*
X0030779Y0062423D01*
X0030653Y0062432D01*
X0030527Y0062445D01*
X0030402Y0062462D01*
X0030278Y0062483D01*
X0030154Y0062507D01*
X0030031Y0062536D01*
X0029909Y0062569D01*
X0029788Y0062605D01*
X0029668Y0062645D01*
X0029550Y0062689D01*
X0029433Y0062737D01*
X0029317Y0062788D01*
X0029204Y0062843D01*
X0029092Y0062901D01*
X0028982Y0062963D01*
X0028874Y0063029D01*
X0028768Y0063098D01*
X0028664Y0063170D01*
X0028563Y0063245D01*
X0028464Y0063324D01*
X0028368Y0063405D01*
X0028274Y0063490D01*
X0028183Y0063577D01*
X0028095Y0063668D01*
X0028009Y0063761D01*
X0027927Y0063857D01*
X0027848Y0063955D01*
X0027771Y0064056D01*
X0027698Y0064159D01*
X0027629Y0064264D01*
X0027563Y0064372D01*
X0027500Y0064481D01*
X0027440Y0064593D01*
X0027384Y0064706D01*
X0027332Y0064821D01*
X0027284Y0064937D01*
X0027239Y0065056D01*
X0027198Y0065175D01*
X0027160Y0065296D01*
X0027127Y0065417D01*
X0027097Y0065540D01*
X0027072Y0065664D01*
X0027050Y0065788D01*
X0027032Y0065913D01*
X0027018Y0066039D01*
X0027008Y0066165D01*
X0027002Y0066291D01*
X0027000Y0066417D01*
X0047000Y0066417D02*
X0047002Y0066543D01*
X0047008Y0066669D01*
X0047018Y0066795D01*
X0047032Y0066921D01*
X0047050Y0067046D01*
X0047072Y0067170D01*
X0047097Y0067294D01*
X0047127Y0067417D01*
X0047160Y0067538D01*
X0047198Y0067659D01*
X0047239Y0067778D01*
X0047284Y0067897D01*
X0047332Y0068013D01*
X0047384Y0068128D01*
X0047440Y0068241D01*
X0047500Y0068353D01*
X0047563Y0068462D01*
X0047629Y0068570D01*
X0047698Y0068675D01*
X0047771Y0068778D01*
X0047848Y0068879D01*
X0047927Y0068977D01*
X0048009Y0069073D01*
X0048095Y0069166D01*
X0048183Y0069257D01*
X0048274Y0069344D01*
X0048368Y0069429D01*
X0048464Y0069510D01*
X0048563Y0069589D01*
X0048664Y0069664D01*
X0048768Y0069736D01*
X0048874Y0069805D01*
X0048982Y0069871D01*
X0049092Y0069933D01*
X0049204Y0069991D01*
X0049317Y0070046D01*
X0049433Y0070097D01*
X0049550Y0070145D01*
X0049668Y0070189D01*
X0049788Y0070229D01*
X0049909Y0070265D01*
X0050031Y0070298D01*
X0050154Y0070327D01*
X0050278Y0070351D01*
X0050402Y0070372D01*
X0050527Y0070389D01*
X0050653Y0070402D01*
X0050779Y0070411D01*
X0050905Y0070416D01*
X0051032Y0070417D01*
X0051158Y0070414D01*
X0051284Y0070407D01*
X0051410Y0070396D01*
X0051535Y0070381D01*
X0051660Y0070362D01*
X0051784Y0070339D01*
X0051908Y0070313D01*
X0052030Y0070282D01*
X0052152Y0070248D01*
X0052272Y0070209D01*
X0052391Y0070167D01*
X0052509Y0070122D01*
X0052625Y0070072D01*
X0052740Y0070019D01*
X0052852Y0069962D01*
X0052963Y0069902D01*
X0053072Y0069838D01*
X0053179Y0069771D01*
X0053284Y0069701D01*
X0053387Y0069627D01*
X0053487Y0069550D01*
X0053585Y0069470D01*
X0053680Y0069387D01*
X0053772Y0069301D01*
X0053862Y0069212D01*
X0053949Y0069120D01*
X0054032Y0069026D01*
X0054113Y0068929D01*
X0054191Y0068829D01*
X0054266Y0068727D01*
X0054337Y0068623D01*
X0054405Y0068516D01*
X0054469Y0068408D01*
X0054530Y0068297D01*
X0054588Y0068185D01*
X0054642Y0068071D01*
X0054692Y0067955D01*
X0054739Y0067838D01*
X0054782Y0067719D01*
X0054821Y0067599D01*
X0054857Y0067478D01*
X0054888Y0067355D01*
X0054916Y0067232D01*
X0054940Y0067108D01*
X0054960Y0066983D01*
X0054976Y0066858D01*
X0054988Y0066732D01*
X0054996Y0066606D01*
X0055000Y0066480D01*
X0055000Y0066354D01*
X0054996Y0066228D01*
X0054988Y0066102D01*
X0054976Y0065976D01*
X0054960Y0065851D01*
X0054940Y0065726D01*
X0054916Y0065602D01*
X0054888Y0065479D01*
X0054857Y0065356D01*
X0054821Y0065235D01*
X0054782Y0065115D01*
X0054739Y0064996D01*
X0054692Y0064879D01*
X0054642Y0064763D01*
X0054588Y0064649D01*
X0054530Y0064537D01*
X0054469Y0064426D01*
X0054405Y0064318D01*
X0054337Y0064211D01*
X0054266Y0064107D01*
X0054191Y0064005D01*
X0054113Y0063905D01*
X0054032Y0063808D01*
X0053949Y0063714D01*
X0053862Y0063622D01*
X0053772Y0063533D01*
X0053680Y0063447D01*
X0053585Y0063364D01*
X0053487Y0063284D01*
X0053387Y0063207D01*
X0053284Y0063133D01*
X0053179Y0063063D01*
X0053072Y0062996D01*
X0052963Y0062932D01*
X0052852Y0062872D01*
X0052740Y0062815D01*
X0052625Y0062762D01*
X0052509Y0062712D01*
X0052391Y0062667D01*
X0052272Y0062625D01*
X0052152Y0062586D01*
X0052030Y0062552D01*
X0051908Y0062521D01*
X0051784Y0062495D01*
X0051660Y0062472D01*
X0051535Y0062453D01*
X0051410Y0062438D01*
X0051284Y0062427D01*
X0051158Y0062420D01*
X0051032Y0062417D01*
X0050905Y0062418D01*
X0050779Y0062423D01*
X0050653Y0062432D01*
X0050527Y0062445D01*
X0050402Y0062462D01*
X0050278Y0062483D01*
X0050154Y0062507D01*
X0050031Y0062536D01*
X0049909Y0062569D01*
X0049788Y0062605D01*
X0049668Y0062645D01*
X0049550Y0062689D01*
X0049433Y0062737D01*
X0049317Y0062788D01*
X0049204Y0062843D01*
X0049092Y0062901D01*
X0048982Y0062963D01*
X0048874Y0063029D01*
X0048768Y0063098D01*
X0048664Y0063170D01*
X0048563Y0063245D01*
X0048464Y0063324D01*
X0048368Y0063405D01*
X0048274Y0063490D01*
X0048183Y0063577D01*
X0048095Y0063668D01*
X0048009Y0063761D01*
X0047927Y0063857D01*
X0047848Y0063955D01*
X0047771Y0064056D01*
X0047698Y0064159D01*
X0047629Y0064264D01*
X0047563Y0064372D01*
X0047500Y0064481D01*
X0047440Y0064593D01*
X0047384Y0064706D01*
X0047332Y0064821D01*
X0047284Y0064937D01*
X0047239Y0065056D01*
X0047198Y0065175D01*
X0047160Y0065296D01*
X0047127Y0065417D01*
X0047097Y0065540D01*
X0047072Y0065664D01*
X0047050Y0065788D01*
X0047032Y0065913D01*
X0047018Y0066039D01*
X0047008Y0066165D01*
X0047002Y0066291D01*
X0047000Y0066417D01*
D11*
X0061000Y0052667D03*
X0061000Y0042667D03*
X0061000Y0032667D03*
X0061000Y0022667D03*
X0031000Y0022667D03*
X0031000Y0032667D03*
X0031000Y0042667D03*
X0031000Y0052667D03*
D12*
X0091000Y0052667D03*
D13*
X0081000Y0052667D03*
X0071000Y0052667D03*
X0071000Y0042667D03*
X0081000Y0042667D03*
X0091000Y0042667D03*
D14*
X0016000Y0049217D03*
X0016000Y0023617D03*
D15*
X0011000Y0012667D03*
X0021000Y0012667D03*
X0031000Y0012667D03*
X0041000Y0012667D03*
X0051000Y0012667D03*
X0061000Y0012667D03*
X0071000Y0012667D03*
X0081000Y0012667D03*
X0091000Y0012667D03*
D16*
X0061000Y0066417D03*
X0021000Y0066417D03*
D17*
X0021000Y0058917D01*
X0066000Y0058917D01*
X0068500Y0061417D01*
X0096000Y0061417D01*
X0098500Y0058917D01*
X0098500Y0040167D01*
X0091000Y0032667D01*
X0077250Y0032667D01*
X0071000Y0038917D01*
X0071000Y0042667D01*
X0061000Y0042667D02*
X0048500Y0030167D01*
X0048500Y0015167D01*
X0051000Y0012667D01*
X0043500Y0015167D02*
X0043500Y0030167D01*
X0031000Y0042667D01*
X0031000Y0032667D02*
X0038500Y0025167D01*
X0038500Y0020167D01*
X0031000Y0012667D01*
X0041000Y0012667D02*
X0043500Y0015167D01*
X0053500Y0020167D02*
X0053500Y0025167D01*
X0061000Y0032667D01*
X0061000Y0022667D02*
X0071000Y0012667D01*
X0061000Y0012667D02*
X0053500Y0020167D01*
X0031000Y0022667D02*
X0021000Y0022667D01*
X0017250Y0022667D01*
X0016000Y0023617D01*
X0007250Y0032367D01*
X0007250Y0052667D01*
X0013500Y0058917D01*
X0021000Y0058917D01*
X0018500Y0052667D02*
X0016000Y0049217D01*
X0018500Y0052667D02*
X0031000Y0052667D01*
X0021000Y0022667D02*
X0011000Y0012667D01*
X0091000Y0012667D02*
X0091000Y0032667D01*
M02*
