%
M48
M72
T01C0.0320
T02C0.0400
T03C0.0512
T04C0.0800
%
T01
X3100Y2267
X3100Y3267
X3100Y4267
X3100Y5267
X6100Y5267
X6100Y4267
X6100Y3267
X6100Y2267
T02
X1100Y1267
X2100Y1267
X3100Y1267
X4100Y1267
X5100Y1267
X6100Y1267
X7100Y1267
X8100Y1267
X9100Y1267
X9100Y4267
X8100Y4267
X7100Y4267
X7100Y5267
X8100Y5267
X9100Y5267
X6100Y6642
X2100Y6642
T03
X1600Y4922
X1600Y2362
T04
X3100Y6642
X5100Y6642
M30
